<?xml version="1.0" encoding="UTF-8" standalone="no"?>
<!-- Created with Inkscape (http://www.inkscape.org/) -->

<svg
   xmlns:osb="http://www.openswatchbook.org/uri/2009/osb"
   xmlns:dc="http://purl.org/dc/elements/1.1/"
   xmlns:cc="http://creativecommons.org/ns#"
   xmlns:rdf="http://www.w3.org/1999/02/22-rdf-syntax-ns#"
   xmlns:svg="http://www.w3.org/2000/svg"
   xmlns="http://www.w3.org/2000/svg"
   xmlns:xlink="http://www.w3.org/1999/xlink"
   xmlns:sodipodi="http://sodipodi.sourceforge.net/DTD/sodipodi-0.dtd"
   xmlns:inkscape="http://www.inkscape.org/namespaces/inkscape"
   width="210mm"
   height="297mm"
   viewBox="0 0 744.09448819 1052.3622047"
   id="svg2"
   version="1.1"
   inkscape:version="0.91 r13725"
   sodipodi:docname="bbq_icon.svg">
  <defs
     id="defs4">
    <linearGradient
       id="linearGradient5513"
       osb:paint="solid">
      <stop
         style="stop-color:#000000;stop-opacity:1;"
         offset="0"
         id="stop5515" />
    </linearGradient>
    <inkscape:path-effect
       effect="spiro"
       id="path-effect4703"
       is_visible="true" />
    <inkscape:path-effect
       effect="spiro"
       id="path-effect4671"
       is_visible="true" />
    <inkscape:path-effect
       effect="spiro"
       id="path-effect4649"
       is_visible="true" />
    <inkscape:path-effect
       effect="spiro"
       id="path-effect4578"
       is_visible="true" />
    <inkscape:path-effect
       effect="spiro"
       id="path-effect4574"
       is_visible="true" />
    <inkscape:path-effect
       effect="spiro"
       id="path-effect4649-3"
       is_visible="true" />
    <inkscape:path-effect
       effect="spiro"
       id="path-effect4649-3-7"
       is_visible="true" />
    <inkscape:path-effect
       effect="spiro"
       id="path-effect4649-3-5"
       is_visible="true" />
    <linearGradient
       inkscape:collect="always"
       xlink:href="#linearGradient5513"
       id="linearGradient5517"
       x1="59.87072"
       y1="302.2917"
       x2="698.21069"
       y2="302.2917"
       gradientUnits="userSpaceOnUse" />
  </defs>
  <sodipodi:namedview
     id="base"
     pagecolor="#ffffff"
     bordercolor="#666666"
     borderopacity="1.0"
     inkscape:pageopacity="0.0"
     inkscape:pageshadow="2"
     inkscape:zoom="1.1858885"
     inkscape:cx="544.37408"
     inkscape:cy="734.81344"
     inkscape:document-units="px"
     inkscape:current-layer="layer1"
     showgrid="false"
     inkscape:window-width="1637"
     inkscape:window-height="1026"
     inkscape:window-x="1067"
     inkscape:window-y="24"
     inkscape:window-maximized="1"
     showguides="false" />
  <metadata
     id="metadata7">
    <rdf:RDF>
      <cc:Work
         rdf:about="">
        <dc:format>image/svg+xml</dc:format>
        <dc:type
           rdf:resource="http://purl.org/dc/dcmitype/StillImage" />
        <dc:title></dc:title>
      </cc:Work>
    </rdf:RDF>
  </metadata>
  <g
     inkscape:label="Layer 1"
     inkscape:groupmode="layer"
     id="layer1"
     style="display:inline">
    <path
       style="fill:none;fill-rule:evenodd;stroke:#000000;stroke-width:1px;stroke-linecap:butt;stroke-linejoin:miter;stroke-opacity:1"
       d="m 177.92567,65.760175 c 1.42728,0.505291 2.83421,1.068065 4.21624,1.686499 0.19138,0.08564 0.38497,0.174016 0.54536,0.30906 0.0802,0.06752 0.15143,0.146537 0.20448,0.236962 0.053,0.09043 0.0875,0.192557 0.0934,0.297228 0.008,0.144032 -0.0373,0.284917 -0.0618,0.427086 -0.0122,0.07108 -0.0193,0.143646 -0.0117,0.215377 0.008,0.07173 0.0304,0.142929 0.0735,0.200786 0.0461,0.06191 0.11386,0.1061 0.18736,0.129644 0.0735,0.02354 0.15251,0.02717 0.22903,0.01711 0.15305,-0.02012 0.29343,-0.09272 0.43095,-0.162839 0.13752,-0.07012 0.27982,-0.140093 0.43354,-0.154206 0.0769,-0.0071 0.15576,4.56e-4 0.22776,0.02827 0.072,0.02782 0.13675,0.07669 0.17786,0.142015 0.0382,0.06069 0.0548,0.133122 0.0571,0.204792 0.002,0.07167 -0.009,0.143084 -0.0231,0.213392 -0.0141,0.07031 -0.0311,0.140147 -0.0403,0.211255 -0.009,0.07111 -0.0106,0.144125 0.006,0.213811 0.0238,0.09796 0.0824,0.184495 0.15219,0.257274 0.0697,0.07278 0.1507,0.133765 0.23161,0.193897 0.16182,0.120262 0.31689,0.249516 0.45945,0.392078 l 2.52975,2.529749 2.52975,2.529749 c 0.14319,0.143188 0.30066,0.271047 0.46563,0.388489 0.0825,0.05872 0.16508,0.118499 0.23486,0.191863 0.0698,0.07336 0.12674,0.162923 0.14276,0.262898 0.0117,0.07309 9.7e-4,0.148083 -0.0173,0.219815 -0.0183,0.07173 -0.0439,0.141381 -0.0629,0.212932 -0.019,0.07155 -0.0311,0.146183 -0.0216,0.21958 0.01,0.0734 0.043,0.145887 0.10176,0.190922 0.0582,0.04462 0.13547,0.05827 0.20858,0.0525 0.0731,-0.0058 0.1435,-0.02922 0.21304,-0.0525 0.0695,-0.02328 0.13995,-0.04673 0.21305,-0.0525 0.0731,-0.0058 0.15038,0.0079 0.20858,0.0525 0.0587,0.04503 0.0922,0.117526 0.10176,0.190922 0.01,0.0734 -0.003,0.148029 -0.0216,0.219581 -0.019,0.07155 -0.0447,0.1412 -0.0629,0.212932 -0.0182,0.07173 -0.029,0.146728 -0.0173,0.219815 0.016,0.09998 0.073,0.189533 0.14276,0.262897 0.0698,0.07336 0.15238,0.133143 0.23486,0.191864 0.16497,0.117441 0.32244,0.2453 0.46563,0.388488 l 2.52975,2.529749 c 0.14325,0.143254 0.30096,0.27098 0.46624,0.388149 0.0826,0.05858 0.16539,0.118248 0.23518,0.191672 0.0698,0.07343 0.12658,0.163288 0.14183,0.263429 0.0112,0.0735 -5.4e-4,0.148737 -0.0198,0.220559 -0.0192,0.07182 -0.0459,0.141482 -0.0653,0.213234 -0.0195,0.07175 -0.0317,0.146847 -0.0213,0.220465 0.005,0.03681 0.0161,0.07297 0.0338,0.105655 0.0177,0.03269 0.0423,0.06185 0.0726,0.08334 0.0302,0.02139 0.0656,0.03487 0.10209,0.04133 0.0364,0.0065 0.0739,0.006 0.11058,0.0011 0.0734,-0.0098 0.14308,-0.03705 0.21261,-0.06244 0.0695,-0.02539 0.14092,-0.04936 0.21489,-0.05208 0.037,-0.0014 0.0744,0.0027 0.10951,0.01435 0.0351,0.01162 0.068,0.03094 0.0936,0.0577 0.0256,0.02682 0.0435,0.0606 0.0535,0.09631 0.0101,0.0357 0.0126,0.07329 0.01,0.110285 -0.006,0.07398 -0.0317,0.14467 -0.058,0.214033 -0.0263,0.06936 -0.0534,0.139584 -0.0608,0.213402 -0.004,0.03691 -0.002,0.07452 0.006,0.110582 0.009,0.03606 0.025,0.07056 0.0492,0.09864 0.0241,0.02796 0.0557,0.04907 0.09,0.06274 0.0343,0.01367 0.0713,0.02004 0.10819,0.02086 0.0738,0.0016 0.14635,-0.01849 0.21638,-0.04193 0.07,-0.02344 0.13931,-0.05049 0.212,-0.0635 0.0727,-0.01301 0.15052,-0.01098 0.21668,0.02183 0.0696,0.03451 0.12041,0.101036 0.14517,0.174686 0.0248,0.07365 0.0252,0.153875 0.0116,0.230372 -0.0273,0.152994 -0.10781,0.290691 -0.15673,0.438192 -0.10398,0.313544 -0.0585,0.665559 0.0858,0.962691 0.14434,0.297132 0.38124,0.542451 0.65045,0.733882 0.53843,0.38286 1.19382,0.555898 1.79349,0.833175 0.18764,0.08676 0.3724,0.185434 0.52688,0.322804 0.15449,0.13737 0.27784,0.317339 0.31637,0.520446 0.0263,0.13859 0.0125,0.28126 -10e-4,0.421673 -0.0135,0.140413 -0.0266,0.283242 10e-4,0.421577 0.0403,0.202151 0.16593,0.37972 0.32069,0.515888 0.15476,0.136167 0.33817,0.235203 0.52256,0.327361 0.56885,0.284311 1.17085,0.518963 1.67222,0.910169 0.25069,0.195603 0.47416,0.430484 0.63165,0.706711 0.15749,0.276227 0.24669,0.595582 0.22588,0.912869 -0.009,0.142223 -0.0403,0.282211 -0.0534,0.424137 -0.0131,0.141926 -0.007,0.290074 0.0534,0.419113 0.0429,0.09148 0.11138,0.169023 0.18808,0.234793 0.0767,0.06577 0.16193,0.1207 0.24612,0.176564 0.0842,0.05586 0.16806,0.113221 0.24107,0.183064 0.073,0.06984 0.13526,0.153235 0.16798,0.248828 0.0457,0.133662 0.0328,0.279409 0.0203,0.420126 -0.0125,0.140718 -0.0203,0.281849 -0.0203,0.423124 l 0,0.843249 0,0.84325 c 0,0.141367 0.008,0.282572 0.0215,0.423312 0.0133,0.14074 0.0269,0.287136 -0.0215,0.419938 -0.0348,0.09528 -0.10072,0.176692 -0.17685,0.243709 -0.0761,0.06702 -0.16269,0.120939 -0.24858,0.174888 -0.0859,0.05395 -0.17206,0.108619 -0.24709,0.176867 -0.075,0.06825 -0.13908,0.151418 -0.17073,0.247785 -0.0443,0.134909 -0.0219,0.281505 7.8e-4,0.421688 0.0226,0.140182 0.0445,0.286984 -7.8e-4,0.421562 -0.0324,0.09621 -0.0974,0.178821 -0.17311,0.246398 -0.0757,0.06758 -0.16247,0.121506 -0.24869,0.175093 -0.0862,0.05359 -0.17291,0.10755 -0.24861,0.17518 -0.0757,0.0676 -0.1406,0.15032 -0.17284,0.24658 -0.0451,0.13465 -0.0229,0.28143 -2e-4,0.42161 0.0227,0.14018 0.0451,0.2869 2e-4,0.42164 -0.032,0.0963 -0.0967,0.17913 -0.17221,0.24694 -0.0755,0.0678 -0.16207,0.12196 -0.24821,0.17564 -0.0861,0.0537 -0.1728,0.1076 -0.24867,0.17502 -0.0759,0.0674 -0.14112,0.14969 -0.17416,0.24565 -0.0462,0.1342 -0.0259,0.28111 -0.004,0.42132 0.0221,0.14021 0.0451,0.28612 0.004,0.42193 -0.0292,0.0962 -0.0891,0.18066 -0.15881,0.25306 -0.0697,0.0724 -0.14952,0.13428 -0.22931,0.19543 -0.15957,0.12231 -0.31297,0.2526 -0.45513,0.39476 -0.28108,0.28108 -0.56217,0.56217 -0.84325,0.84325 -0.84325,0.84325 -1.68649,1.6865 -2.52974,2.52975 -0.14216,0.14216 -0.29555,0.27246 -0.4551,0.39478 -0.0798,0.0612 -0.15955,0.12304 -0.22929,0.19543 -0.0697,0.0724 -0.12961,0.15686 -0.15886,0.25303 -0.0413,0.13579 -0.0184,0.2817 0.004,0.42191 0.022,0.14021 0.0423,0.28707 -0.004,0.42134 -0.0329,0.096 -0.0978,0.17841 -0.1735,0.24603 -0.0756,0.0676 -0.16215,0.12176 -0.24817,0.17556 -0.086,0.0538 -0.17252,0.10795 -0.24816,0.17558 -0.0756,0.0676 -0.14059,0.15008 -0.17342,0.24608 -0.0459,0.1343 -0.0255,0.28115 -0.003,0.42135 0.0221,0.14021 0.0449,0.28616 0.003,0.4219 -0.0296,0.0968 -0.0905,0.18172 -0.16293,0.25232 -0.0725,0.0706 -0.15658,0.12803 -0.24123,0.18347 -0.0846,0.0554 -0.17061,0.10948 -0.2482,0.17443 -0.0776,0.065 -0.14715,0.14179 -0.19089,0.23303 -0.0617,0.12861 -0.0681,0.27701 -0.0549,0.41902 0.0132,0.14202 0.0447,0.28197 0.0549,0.42423 0.0228,0.31806 -0.0634,0.63901 -0.2187,0.91753 -0.15525,0.27853 -0.3772,0.51628 -0.62755,0.71377 -0.5007,0.39499 -1.10555,0.62883 -1.6835,0.89845 -0.18843,0.0879 -0.37713,0.1816 -0.53459,0.31738 -0.15746,0.13578 -0.2827,0.31958 -0.30866,0.52587 -0.0177,0.14091 0.0111,0.28287 0.0299,0.42364 0.0188,0.14077 0.0266,0.28932 -0.0299,0.41961 -0.0406,0.0936 -0.11198,0.17107 -0.19206,0.23427 -0.0801,0.0632 -0.16933,0.11357 -0.25672,0.16621 -0.0874,0.0526 -0.17401,0.10839 -0.2463,0.18038 -0.0723,0.072 -0.13,0.162 -0.14817,0.26239 -0.013,0.0718 -0.005,0.14601 0.01,0.21745 0.0151,0.0714 0.0375,0.14112 0.0546,0.21211 0.017,0.071 0.0287,0.14427 0.0217,0.21695 -0.007,0.0727 -0.0342,0.14523 -0.0859,0.19674 -0.0517,0.0515 -0.12436,0.0783 -0.19702,0.0851 -0.0727,0.007 -0.14586,-0.005 -0.21681,-0.0222 -0.071,-0.0171 -0.14061,-0.0395 -0.21206,-0.0544 -0.0714,-0.0149 -0.14565,-0.0221 -0.21736,-0.008 -0.0993,0.0188 -0.18777,0.0764 -0.26092,0.14617 -0.0731,0.0698 -0.13335,0.15177 -0.19257,0.23369 -0.11845,0.16383 -0.24681,0.32044 -0.38976,0.46339 l -2.52975,2.52975 -0.84325,0.84325 c -0.14173,0.14173 -0.27336,0.29309 -0.39824,0.44987 -0.0624,0.0784 -0.12545,0.15672 -0.19742,0.22647 -0.072,0.0697 -0.154,0.13106 -0.24759,0.16691 -0.13235,0.0507 -0.27896,0.0473 -0.4199,0.0324 -0.14094,-0.0149 -0.28187,-0.0407 -0.42335,-0.0324 -0.20568,0.0121 -0.40285,0.097 -0.56902,0.21879 -0.16617,0.12181 -0.30329,0.2794 -0.42288,0.44717 -0.23919,0.33554 -0.41498,0.71786 -0.6946,1.02054 -0.30789,0.33328 -0.72562,0.54985 -1.16,0.68093 -0.43439,0.13108 -0.88837,0.18209 -1.33992,0.22653 -0.45154,0.0444 -0.90572,0.0832 -1.34644,0.19108 -0.44072,0.10787 -0.87171,0.28914 -1.21314,0.58796 -0.29957,0.26218 -0.52257,0.60734 -0.84324,0.84325 -0.25429,0.18707 -0.55633,0.29535 -0.85176,0.40661 -0.29542,0.11127 -0.59481,0.23148 -0.83474,0.43664 -0.31186,0.26667 -0.49361,0.65001 -0.7231,0.99017 -0.11474,0.17008 -0.24437,0.33256 -0.40477,0.46049 -0.16039,0.12793 -0.35407,0.22013 -0.55863,0.23583 -0.14127,0.0108 -0.28242,-0.0146 -0.42327,-0.03 -0.14086,-0.0154 -0.28743,-0.0201 -0.41998,0.03 -0.0938,0.0354 -0.17597,0.0966 -0.24796,0.16638 -0.072,0.0697 -0.13493,0.14818 -0.19729,0.22666 -0.12471,0.15696 -0.25624,0.30845 -0.398,0.45021 l -0.84325,0.84325 -4.21625,4.21625 c -0.43906,0.43906 -0.80814,0.94113 -1.12928,1.47255 -0.16057,0.26571 -0.32728,0.53323 -0.55592,0.74324 -0.11433,0.10501 -0.24436,0.19443 -0.38835,0.25243 -0.14399,0.058 -0.30256,0.0837 -0.4562,0.0615 -0.14749,-0.0213 -0.28583,-0.0853 -0.43252,-0.1115 -0.0733,-0.0131 -0.14934,-0.0166 -0.22204,-2.7e-4 -0.0727,0.0163 -0.14209,0.0536 -0.18869,0.11177 -0.0452,0.0564 -0.0666,0.12921 -0.0707,0.2014 -0.004,0.0722 0.008,0.14434 0.0241,0.21485 0.016,0.0705 0.036,0.1402 0.0478,0.21153 0.0119,0.0713 0.0154,0.14512 -0.001,0.21547 -0.0197,0.0831 -0.0675,0.15827 -0.12981,0.21665 -0.0623,0.0584 -0.13877,0.10052 -0.21935,0.12881 -0.16116,0.0566 -0.33557,0.0585 -0.50634,0.0616 -0.17078,0.003 -0.34568,0.009 -0.50443,0.0716 -0.0794,0.0315 -0.15375,0.0775 -0.21244,0.13958 -0.0587,0.062 -0.10115,0.14061 -0.11413,0.22502 -0.0112,0.0731 -3.9e-4,0.14798 0.0178,0.21967 0.0182,0.0717 0.0436,0.14138 0.0624,0.21293 0.0187,0.0716 0.0307,0.14616 0.0211,0.2195 -0.01,0.0733 -0.0428,0.14575 -0.10122,0.19115 -0.0578,0.0449 -0.13468,0.0594 -0.20773,0.0546 -0.073,-0.005 -0.1436,-0.0274 -0.21318,-0.0502 -0.0696,-0.0228 -0.13981,-0.046 -0.21274,-0.0524 -0.0729,-0.006 -0.14997,0.006 -0.2096,0.0481 -0.0607,0.0432 -0.0976,0.11437 -0.11047,0.18773 -0.0129,0.0734 -0.004,0.14902 0.0138,0.22142 0.0175,0.0724 0.0431,0.14254 0.0637,0.21412 0.0206,0.0716 0.0362,0.14557 0.0329,0.21998 -0.005,0.10314 -0.0458,0.20255 -0.10598,0.28643 -0.0602,0.0839 -0.13872,0.15318 -0.22265,0.2133 -0.16785,0.12025 -0.35984,0.20685 -0.51462,0.34352 -0.15107,0.1334 -0.25891,0.30754 -0.38151,0.46749 -0.1226,0.15996 -0.27019,0.3131 -0.46174,0.37576 -0.13441,0.044 -0.27959,0.0396 -0.42036,0.0261 -0.14078,-0.0135 -0.2818,-0.0358 -0.42289,-0.0261 -0.31015,0.0213 -0.59363,0.19764 -0.80474,0.42585 -0.21111,0.22821 -0.3594,0.50631 -0.49997,0.78359 -0.14058,0.27729 -0.27739,0.55966 -0.47054,0.80326 -0.19315,0.2436 -0.45116,0.44896 -0.75449,0.51705 -0.27521,0.0618 -0.56127,0.007 -0.84325,0 -0.66651,-0.0163 -1.33524,0.25149 -1.80656,0.72303 -0.47133,0.47154 -0.73881,1.14019 -0.72319,1.80672 0.007,0.28196 0.061,0.56789 0,0.84325 -0.0671,0.3029 -0.26966,0.56177 -0.51091,0.75683 -0.24126,0.19506 -0.52161,0.33452 -0.79743,0.47657 -0.27581,0.14204 -0.55274,0.29046 -0.7819,0.4996 -0.22916,0.20914 -0.40905,0.48799 -0.43951,0.79674 -0.0138,0.14039 0.003,0.28172 0.0153,0.42228 0.012,0.14056 0.0187,0.28405 -0.0153,0.42097 -0.0496,0.19965 -0.1829,0.37032 -0.3411,0.5018 -0.15821,0.13148 -0.34159,0.22845 -0.52249,0.32637 -0.18091,0.0979 -0.36257,0.19904 -0.51506,0.3371 -0.1525,0.13806 -0.27537,0.3181 -0.30785,0.52123 -0.0223,0.13962 -0.001,0.282 0.0147,0.42247 0.0161,0.14047 0.0268,0.28564 -0.0147,0.42078 -0.0297,0.0964 -0.085,0.18352 -0.15202,0.25893 -0.067,0.0754 -0.14546,0.13974 -0.22644,0.19985 -0.16197,0.12023 -0.33808,0.22752 -0.46479,0.38447 -0.0925,0.11454 -0.15481,0.25192 -0.18903,0.39509 -0.0342,0.14318 -0.0409,0.29213 -0.0287,0.43883 0.0244,0.2934 0.12244,0.57497 0.21955,0.8529 0.0971,0.27794 0.19488,0.55966 0.21859,0.85312 0.0119,0.14672 0.005,0.29567 -0.0299,0.43873 -0.0347,0.14305 -0.0976,0.28021 -0.19056,0.39433 -0.1275,0.15649 -0.30434,0.26291 -0.46661,0.38297 -0.0811,0.06 -0.15967,0.12445 -0.22642,0.20016 -0.0667,0.0757 -0.12162,0.16333 -0.15022,0.26012 -0.04,0.13531 -0.0286,0.27981 -0.0177,0.42049 0.0109,0.14067 0.0177,0.28166 0.0177,0.42276 l 0,0.84325 0,2.52975 0,2.52975 0,0.84325 c 0,0.14106 -0.007,0.28202 -0.0171,0.42269 -0.0106,0.14066 -0.0216,0.28491 0.0171,0.42056 0.0277,0.0971 0.081,0.18573 0.14643,0.26272 0.0654,0.077 0.14283,0.14295 0.22337,0.20392 0.16109,0.12196 0.33777,0.2269 0.47345,0.37661 0.12468,0.13757 0.20966,0.30876 0.25601,0.48855 0.0464,0.17978 0.055,0.36806 0.0378,0.55293 -0.0344,0.36973 -0.16941,0.7216 -0.3024,1.06829 -0.13299,0.34669 -0.2666,0.69932 -0.29791,1.06933 -0.0157,0.185 -0.005,0.37325 0.0435,0.55244 0.0486,0.17919 0.13609,0.34921 0.26303,0.4847 0.13855,0.14788 0.3179,0.24969 0.48013,0.37112 0.0811,0.0607 0.15873,0.12709 0.22331,0.20516 0.0646,0.0781 0.11597,0.16849 0.13981,0.26697 0.0333,0.13766 0.0116,0.28185 -0.008,0.42216 -0.0193,0.14031 -0.0356,0.28626 0.008,0.42109 0.0309,0.0961 0.0909,0.18095 0.16205,0.25252 0.0712,0.0716 0.15366,0.13085 0.23707,0.18771 0.0834,0.0569 0.16841,0.11182 0.24625,0.1761 0.0778,0.0643 0.14888,0.13865 0.19788,0.22692 0.0698,0.12577 0.0913,0.27385 0.0846,0.41754 -0.007,0.1437 -0.04,0.28467 -0.0741,0.42443 -0.0341,0.13975 -0.0692,0.28013 -0.0795,0.42362 -0.0103,0.14348 0.006,0.29179 0.0689,0.42091 0.0886,0.18037 0.25854,0.30445 0.42201,0.4213 0.16348,0.11685 0.33329,0.24128 0.42124,0.42195 0.063,0.12941 0.0781,0.27789 0.0671,0.4214 -0.0109,0.14351 -0.0466,0.28381 -0.081,0.42356 -0.0344,0.13975 -0.0678,0.28084 -0.074,0.42463 -0.006,0.14379 0.0164,0.29196 0.0879,0.41691 0.0437,0.0764 0.10516,0.14276 0.17928,0.19014 0.0741,0.0474 0.16082,0.0754 0.24874,0.078 0.0879,0.003 0.17679,-0.0204 0.2511,-0.0675 0.0743,-0.0471 0.13351,-0.11822 0.16413,-0.20068 0.0231,-0.0623 0.0299,-0.13046 0.02,-0.19613 -0.01,-0.0657 -0.0365,-0.12871 -0.0763,-0.18193 -0.0795,-0.10642 -0.2123,-0.16992 -0.34513,-0.16825 -0.13283,0.002 -0.26276,0.0674 -0.34544,0.17135 -0.0827,0.10397 -0.11747,0.2438 -0.0964,0.37496 0.0132,0.082 0.0471,0.16018 0.0948,0.2282 0.0477,0.068 0.10892,0.12608 0.17714,0.17349 0.13644,0.0948 0.29843,0.14634 0.46114,0.17998 0.16271,0.0337 0.32849,0.0507 0.49128,0.0839 0.1628,0.0332 0.32498,0.0839 0.46215,0.17765 0.13181,0.0901 0.23557,0.21702 0.31444,0.35586 0.0789,0.13883 0.13401,0.28982 0.18175,0.44218 0.0955,0.30473 0.16609,0.62535 0.34706,0.88846 0.11281,0.16402 0.26236,0.29878 0.40992,0.43241 0.14755,0.13364 0.29256,0.27007 0.43333,0.41084 l 2.52975,2.52975 c 0.14211,0.14211 0.2953,0.27254 0.45457,0.39512 0.0796,0.0613 0.15926,0.12328 0.229,0.19563 0.0697,0.0724 0.12975,0.15657 0.15967,0.2525 0.0422,0.1354 0.0213,0.2814 0,0.42163 -0.0213,0.14022 -0.0422,0.28622 0,0.42162 0.0299,0.0959 0.0899,0.18015 0.15967,0.2525 0.0697,0.0724 0.14937,0.13434 0.22901,0.19563 0.15927,0.12258 0.31245,0.253 0.45457,0.39512 0.28108,0.28108 0.56217,0.56217 0.84325,0.84325 0.84325,0.84325 1.6865,1.68649 2.52975,2.52974 0.14171,0.1417 0.29295,0.27341 0.44956,0.39845 0.0783,0.0625 0.15656,0.1256 0.22631,0.19754 0.0697,0.0719 0.13115,0.15384 0.16738,0.24726 0.0513,0.13218 0.049,0.27881 0.0345,0.41983 -0.0145,0.14103 -0.0406,0.28178 -0.0345,0.42342 0.0132,0.30573 0.17612,0.58872 0.38567,0.81173 0.20955,0.223 0.46476,0.39727 0.71915,0.56735 0.5088,0.34015 0.99216,0.7179 1.42493,1.15067 l 5.0595,5.0595 3.373,3.373 0.84325,0.84325 c 0.14299,0.14299 0.29973,0.27126 0.46375,0.38955 0.082,0.0591 0.16411,0.11928 0.23388,0.19246 0.0698,0.0732 0.12725,0.16181 0.14562,0.26124 0.0133,0.0719 0.006,0.14624 -0.01,0.21773 -0.0154,0.0715 -0.0383,0.14114 -0.0557,0.21218 -0.0174,0.071 -0.0293,0.14443 -0.0221,0.2172 0.007,0.0728 0.035,0.1454 0.0877,0.19614 0.0525,0.0506 0.12573,0.0757 0.19844,0.0808 0.0727,0.005 0.14548,-0.008 0.21612,-0.0263 0.0707,-0.0179 0.14021,-0.0405 0.2118,-0.0541 0.0716,-0.0137 0.14625,-0.0183 0.21689,-3.3e-4 0.0759,0.0193 0.14423,0.0645 0.19547,0.12373 0.0512,0.0592 0.0857,0.13202 0.10402,0.20818 0.0365,0.15231 0.009,0.31346 -0.0416,0.46176 -0.0504,0.1483 -0.12286,0.28811 -0.17917,0.43427 -0.0563,0.14617 -0.0967,0.30297 -0.0787,0.45856 0.0239,0.20609 0.14921,0.38968 0.30602,0.52553 0.1568,0.13584 0.34435,0.23038 0.53008,0.32282 0.18573,0.0924 0.37381,0.18549 0.5326,0.31902 0.15878,0.13352 0.28787,0.31383 0.3178,0.51913 0.0205,0.14033 -0.006,0.2826 -0.0243,0.42322 -0.0183,0.14062 -0.0277,0.28812 0.0243,0.42003 0.0372,0.0942 0.10381,0.17451 0.18005,0.2412 0.0762,0.0667 0.16233,0.12097 0.24768,0.17552 0.0854,0.0546 0.17081,0.11002 0.24527,0.17869 0.0745,0.0687 0.13805,0.15179 0.17024,0.24783 0.0451,0.13451 0.0254,0.2811 0.004,0.42133 -0.0215,0.14022 -0.044,0.28583 -0.004,0.42192 0.0285,0.097 0.0877,0.18289 0.15866,0.25487 0.071,0.072 0.15382,0.13108 0.23772,0.18748 0.0839,0.0564 0.16953,0.11064 0.24795,0.17444 0.0784,0.0638 0.15001,0.13798 0.19892,0.22646 0.0697,0.12615 0.0896,0.27502 0.0809,0.4189 -0.009,0.14387 -0.0444,0.28457 -0.08,0.42424 -0.0356,0.13967 -0.0715,0.28032 -0.0805,0.42418 -0.009,0.14386 0.0104,0.29275 0.0796,0.41918 0.0485,0.0886 0.11972,0.1631 0.19781,0.22721 0.0781,0.0641 0.16347,0.11864 0.24722,0.17516 0.0838,0.0565 0.16653,0.11556 0.23773,0.18725 0.0712,0.0717 0.13082,0.15705 0.16049,0.25363 0.0416,0.1355 0.0218,0.28129 0.001,0.42153 -0.0206,0.14025 -0.0413,0.28574 -0.001,0.42172 0.0285,0.0969 0.0867,0.18317 0.15687,0.2559 0.0701,0.0727 0.15209,0.13291 0.23542,0.19003 0.16666,0.11424 0.34686,0.22415 0.45096,0.39732 0.0596,0.0992 0.0903,0.2143 0.097,0.32984 0.007,0.11553 -0.01,0.23162 -0.04,0.34337 -0.0601,0.22351 -0.17264,0.42866 -0.26679,0.6401 -0.0941,0.21145 -0.17165,0.43871 -0.15476,0.66955 0.008,0.11542 0.0412,0.23005 0.10289,0.32797 0.0617,0.0979 0.15316,0.17839 0.26156,0.21892 0.13277,0.0496 0.2799,0.0375 0.42037,0.0185 0.14047,-0.019 0.28347,-0.0442 0.42288,-0.0185 0.15548,0.0286 0.29609,0.1209 0.39445,0.24466 0.0984,0.12377 0.15582,0.27734 0.17591,0.43416 0.0402,0.31362 -0.0645,0.62808 -0.19955,0.91398 -0.13503,0.2859 -0.30241,0.55818 -0.40104,0.85859 -0.0493,0.1502 -0.081,0.30726 -0.0803,0.46535 7.2e-4,0.15809 0.0348,0.31749 0.11048,0.45626 0.0958,0.17546 0.2518,0.3091 0.40808,0.43372 0.15628,0.12463 0.31882,0.247 0.43517,0.40953 0.16935,0.23655 0.22511,0.53962 0.20973,0.83013 -0.0154,0.29051 -0.0965,0.57308 -0.17959,0.85188 -0.0831,0.2788 -0.1692,0.5593 -0.19504,0.84907 -0.0258,0.28977 0.013,0.59378 0.1649,0.84192 0.10414,0.17015 0.25546,0.30563 0.40835,0.43378 0.15288,0.12815 0.31103,0.25309 0.4349,0.40947 0.1797,0.22686 0.27823,0.51078 0.31331,0.79806 0.0351,0.28728 0.01,0.57897 -0.0392,0.86425 -0.0974,0.57057 -0.28761,1.13203 -0.27411,1.71069 0.0137,0.5852 0.23474,1.14362 0.34038,1.71937 0.0528,0.28787 0.0767,0.58421 0.0306,0.87325 -0.046,0.28903 -0.16591,0.57156 -0.37099,0.78037 -0.14167,0.14424 -0.318,0.24859 -0.478,0.37218 -0.08,0.0618 -0.15648,0.12895 -0.22093,0.20683 -0.0644,0.0779 -0.11676,0.16698 -0.14432,0.26424 -0.0385,0.13594 -0.0273,0.28053 -0.0118,0.42097 0.0155,0.14045 0.0349,0.28287 0.0118,0.42228 -0.0267,0.16154 -0.10914,0.30921 -0.20899,0.43897 -0.0999,0.12975 -0.21759,0.24446 -0.32738,0.36591 -0.10979,0.12146 -0.21312,0.25203 -0.27703,0.40277 -0.0639,0.15074 -0.0854,0.32483 -0.0299,0.47885 0.034,0.0943 0.0949,0.17706 0.16468,0.24914 0.0697,0.0721 0.14847,0.13477 0.22725,0.19685 0.15755,0.12417 0.30948,0.25542 0.45132,0.39726 l 0.84325,0.84325 c 0.36065,0.36065 0.68841,0.75766 0.92563,1.20917 0.23721,0.45152 0.40917,0.95119 0.76087,1.32058 0.13792,0.14486 0.30056,0.2634 0.45335,0.39247 0.1528,0.12907 0.29889,0.27267 0.3899,0.45078 0.098,0.19183 0.12608,0.41331 0.11458,0.62842 -0.0115,0.21511 -0.0606,0.42622 -0.10997,0.63591 -0.0493,0.2097 -0.0993,0.42055 -0.11232,0.63557 -0.0131,0.21503 0.0125,0.43661 0.10771,0.62985 0.0885,0.1796 0.2322,0.32594 0.38446,0.45594 0.15226,0.13 0.3157,0.24728 0.45879,0.38731 0.33948,0.33223 0.5532,0.79587 0.56113,1.27081 0.008,0.47493 -0.19683,0.95413 -0.56113,1.25894 -0.15635,0.13082 -0.33765,0.22862 -0.49829,0.35414 -0.0803,0.0627 -0.1557,0.13276 -0.21696,0.21423 -0.0613,0.0815 -0.10818,0.17489 -0.128,0.27488 -0.0276,0.13911 -0.002,0.28244 0.0177,0.42287 0.0197,0.14044 0.0328,0.28787 -0.0177,0.42038 -0.0361,0.0948 -0.10286,0.17542 -0.17945,0.24194 -0.0766,0.0665 -0.16326,0.12016 -0.24913,0.17415 -0.0859,0.054 -0.17185,0.109 -0.24642,0.17777 -0.0746,0.0688 -0.13783,0.15263 -0.16825,0.24939 -0.0426,0.13557 -0.0177,0.28192 0.006,0.4221 0.0117,0.0701 0.0229,0.1405 0.0249,0.21153 0.002,0.071 -0.006,0.14308 -0.0306,0.20962 -0.0359,0.0958 -0.10608,0.17555 -0.18605,0.23934 -0.08,0.0638 -0.17012,0.11331 -0.25858,0.16468 -0.0885,0.0514 -0.17649,0.10549 -0.2499,0.17672 -0.0734,0.0712 -0.13195,0.16159 -0.14872,0.2625 -0.0121,0.0728 -0.002,0.1476 0.0154,0.21927 0.0175,0.0717 0.0425,0.14131 0.0611,0.21272 0.0185,0.0714 0.0307,0.14571 0.0217,0.21894 -0.009,0.0732 -0.0409,0.14578 -0.0982,0.19232 -0.0567,0.0461 -0.13281,0.0627 -0.20577,0.0598 -0.073,-0.003 -0.14392,-0.0237 -0.21361,-0.0455 -0.0697,-0.0218 -0.1396,-0.045 -0.21219,-0.0528 -0.0726,-0.008 -0.14924,6.3e-4 -0.21168,0.0385 -0.0649,0.0394 -0.10913,0.10789 -0.12877,0.18126 -0.0196,0.0734 -0.0164,0.15135 -0.002,0.22587 0.0293,0.14904 0.10307,0.28671 0.13052,0.43612 0.0422,0.22964 -0.0351,0.47793 -0.20022,0.64303 -0.1651,0.1651 -0.41339,0.24241 -0.64303,0.20022"
       id="path4647"
       inkscape:path-effect="#path-effect4649"
       inkscape:original-d="m 177.92567,65.760175 c 0.28633,4.839562 2.86237,1.009561 4.21624,1.686499 0.35555,0.177773 0.66548,0.487704 0.84325,0.84325 0.12571,0.251408 -0.19875,0.644493 0,0.843249 0.39751,0.397512 1.28899,-0.397511 1.6865,0 0.19876,0.198756 -0.1257,0.591841 0,0.84325 0.17777,0.355545 0.56217,0.562166 0.84325,0.843249 0.84325,0.84325 1.6865,1.6865 2.52975,2.529749 0.84325,0.84325 1.6865,1.686499 2.52975,2.529749 0.28108,0.281083 0.66548,0.487704 0.84325,0.84325 0.1257,0.251408 -0.19876,0.644493 0,0.843249 0.19875,0.198756 0.64449,-0.198756 0.84325,0 0.19875,0.198756 -0.12571,0.591841 0,0.84325 0.17777,0.355545 0.56216,0.562166 0.84325,0.843249 0.84325,0.84325 1.6865,1.6865 2.52975,2.529749 0.28108,0.281083 0.66547,0.487705 0.84325,0.84325 0.1257,0.251408 -0.19876,0.644494 0,0.843249 0.19875,0.198756 0.64449,-0.198755 0.84325,0 0.19875,0.198756 -0.19876,0.644494 0,0.84325 0.19875,0.198756 0.64449,-0.198756 0.84325,0 0.19875,0.198756 -0.12571,0.591841 0,0.84325 0.15495,0.30991 2.17193,2.171938 2.52974,2.529748 0.28109,0.281084 0.66548,0.487705 0.84325,0.84325 0.12571,0.251408 -0.1257,0.591841 0,0.84325 0.17778,0.355545 0.56217,0.562166 0.84325,0.843249 0.35781,0.357811 2.3748,2.219839 2.52975,2.529749 0.12571,0.251408 -0.1257,0.591841 0,0.84325 0.17777,0.355545 0.66548,0.487704 0.84325,0.843249 0.12571,0.251409 0,0.562167 0,0.84325 0,0.281083 0,0.562166 0,0.843249 0,0.281084 0,0.562167 0,0.84325 0,0.281083 0.12571,0.591841 0,0.84325 -0.17777,0.355545 -0.66548,0.487704 -0.84325,0.843249 -0.1257,0.251409 0.12571,0.591841 0,0.84325 -0.17777,0.355545 -0.66547,0.487704 -0.84325,0.843251 -0.1257,0.25141 0.12571,0.59184 0,0.84325 -0.17777,0.35554 -0.66547,0.4877 -0.84325,0.84325 -0.1257,0.25141 0.12571,0.59184 0,0.84325 -0.17777,0.35554 -0.56216,0.56216 -0.84325,0.84325 -0.28108,0.28108 -0.56216,0.56216 -0.84325,0.84325 -0.84325,0.84325 -1.6865,1.6865 -2.52974,2.52975 -0.28109,0.28108 -0.66548,0.4877 -0.84325,0.84324 -0.12571,0.25141 0.1257,0.59185 0,0.84325 -0.17778,0.35555 -0.66548,0.48771 -0.84325,0.84325 -0.12571,0.25141 0.1257,0.59185 0,0.84325 -0.17778,0.35555 -0.66548,0.48771 -0.84325,0.84325 -0.12571,0.25141 0.1257,0.59184 0,0.84325 -0.15496,0.30991 -2.17194,2.17194 -2.52975,2.52975 -0.28109,0.28108 -0.66548,0.48771 -0.84325,0.84325 -0.12571,0.25141 0.1257,0.59184 0,0.84325 -0.17777,0.35555 -0.66548,0.48771 -0.84325,0.84325 -0.12571,0.25141 0.19875,0.64449 0,0.84325 -0.19876,0.19876 -0.59184,-0.1257 -0.84325,0 -0.35555,0.17777 -0.56217,0.56217 -0.84325,0.84325 -0.84325,0.84325 -1.6865,1.6865 -2.52975,2.52975 -0.28108,0.28108 -0.56217,0.56216 -0.84325,0.84325 -0.28108,0.28108 -0.4877,0.66547 -0.84325,0.84325 -0.25141,0.1257 -0.59184,-0.12571 -0.84325,0 -1.12544,0.56272 -0.56106,1.12378 -1.6865,1.6865 -0.86092,0.43046 -4.19857,1.25603 -5.0595,1.6865 -0.35554,0.17777 -0.5125,0.62275 -0.84324,0.84325 -0.52297,0.34864 -1.16354,0.4946 -1.6865,0.84325 -0.6615,0.44099 -0.97541,1.33095 -1.6865,1.68649 -0.25141,0.12571 -0.59184,-0.1257 -0.84325,0 -0.35555,0.17778 -0.56217,0.56217 -0.84325,0.84325 -0.28109,0.28109 -0.56217,0.56217 -0.84325,0.84325 -1.40542,1.40542 -2.81083,2.81084 -4.21625,4.21625 -0.35781,0.35781 -2.21984,2.3748 -2.52975,2.52975 -0.25141,0.1257 -0.64449,-0.19876 -0.84325,0 -0.19875,0.19876 0.19876,0.64449 0,0.84325 -1.74471,1.74471 0.0682,-2.66615 -1.6865,0.84325 -0.1257,0.25141 0.19876,0.64449 0,0.84325 -0.19875,0.19875 -0.64449,-0.19876 -0.84325,0 -0.19875,0.19875 0.12571,0.59184 0,0.84325 -0.17777,0.35554 -0.56216,0.56217 -0.84325,0.84325 -0.28108,0.28108 -0.4877,0.66548 -0.84325,0.84325 -0.2514,0.1257 -0.59184,-0.12571 -0.84325,0 -0.76757,0.38379 -1.76217,2.14596 -2.52974,2.52975 -0.25141,0.1257 -0.59185,-0.12571 -0.84325,0 -0.2239,0.11194 -2.41781,2.30585 -2.52975,2.52975 -0.12571,0.2514 0.1257,0.59184 0,0.84325 -0.38379,0.76757 -2.14596,1.76217 -2.52975,2.52974 -0.12571,0.25141 0.1257,0.59185 0,0.84325 -0.35555,0.71109 -1.33096,0.97541 -1.6865,1.6865 -0.12571,0.25141 0.1257,0.59184 0,0.84325 -0.17777,0.35555 -0.66548,0.48771 -0.84325,0.84325 -0.20531,0.41062 0.20531,2.96238 0,3.373 -0.17777,0.35555 -0.66548,0.4877 -0.84325,0.84325 -0.1257,0.25141 0,0.56217 0,0.84325 0,0.28108 0,0.56217 0,0.84325 0,0.84325 0,1.6865 0,2.52975 0,0.84325 0,1.6865 0,2.52975 0,0.28108 0,0.56216 0,0.84325 0,0.28108 -0.1257,0.59184 0,0.84325 0.17777,0.35554 0.66548,0.4877 0.84325,0.84325 0.20822,0.41644 -0.20822,3.7998 0,4.21624 0.17777,0.35555 0.66548,0.48771 0.84325,0.84325 0.1257,0.25141 -0.12571,0.59184 0,0.84325 0.17777,0.35555 0.66548,0.48771 0.84325,0.84325 0.25141,0.50282 -0.25141,1.18368 0,1.6865 0.17777,0.35555 0.66548,0.48771 0.84325,0.84325 0.25141,0.50282 -0.39751,1.28899 0,1.6865 0.19875,0.19876 0.84325,-0.28108 0.84325,0 0,0.28108 -1.04201,-0.19876 -0.84325,0 0.44443,0.44443 1.24207,0.39882 1.6865,0.84325 0.44443,0.44443 0.49461,1.16354 0.84325,1.6865 0.2205,0.33075 0.56216,0.56217 0.84325,0.84325 0.84325,0.84325 1.6865,1.6865 2.52975,2.52975 0.28108,0.28108 0.66547,0.4877 0.84324,0.84325 0.12571,0.25141 -0.1257,0.59184 0,0.84325 0.17778,0.35554 0.56217,0.56216 0.84325,0.84325 0.28109,0.28108 0.56217,0.56216 0.84325,0.84325 0.84325,0.84325 1.6865,1.68649 2.52975,2.52974 0.28109,0.28109 0.66548,0.48771 0.84325,0.84325 0.12571,0.25141 -0.1257,0.59185 0,0.84325 0.15496,0.30991 2.17194,2.17194 2.52975,2.52975 1.6865,1.6865 3.373,3.373 5.0595,5.0595 1.12433,1.12433 2.24866,2.24867 3.373,3.373 0.28108,0.28108 0.56216,0.56216 0.84325,0.84325 0.28108,0.28108 0.66547,0.4877 0.84325,0.84325 0.1257,0.25141 -0.19876,0.64449 0,0.84325 0.19875,0.19875 0.64449,-0.19876 0.84325,0 0.39751,0.39751 -0.25141,1.18368 0,1.6865 0.11365,0.2273 1.57284,1.45919 1.6865,1.6865 0.1257,0.2514 -0.12571,0.59184 0,0.84325 0.17777,0.35554 0.66547,0.4877 0.84324,0.84324 0.12571,0.25141 -0.1257,0.59185 0,0.84325 0.17778,0.35555 0.66548,0.48771 0.84325,0.84325 0.25141,0.50282 -0.2514,1.18369 0,1.6865 0.17778,0.35555 0.66548,0.48771 0.84325,0.84325 0.12571,0.25141 -0.1257,0.59184 0,0.84325 0.17778,0.35555 0.66548,0.48771 0.84325,0.84325 0.16717,0.33434 -0.17239,2.35736 0,2.52975 0.19876,0.19876 0.6445,-0.19875 0.84325,0 0.23073,0.23073 -0.22872,2.91555 0,3.373 0.17778,0.35554 0.66548,0.4877 0.84325,0.84325 0.20531,0.41062 -0.20531,2.96238 0,3.373 0.17778,0.35554 0.66548,0.4877 0.84325,0.84325 0.11087,0.22172 0,2.93204 0,3.373 0,0.44095 0.11087,3.15127 0,3.37299 -0.17777,0.35555 -0.66547,0.48771 -0.84325,0.84325 -0.1257,0.25141 0.12571,0.59184 0,0.84325 -0.34283,0.68566 -1.33764,0.69772 -0.84325,1.6865 0.17778,0.35555 0.56217,0.56217 0.84325,0.84325 0.28109,0.28108 0.56217,0.56217 0.84325,0.84325 1.93343,1.93343 -0.35554,-0.53332 1.6865,2.52975 0.2205,0.33075 0.66548,0.4877 0.84325,0.84325 0.25019,0.50037 -0.25019,2.02938 0,2.52975 0.17777,0.35554 0.66548,0.4877 0.84325,0.84325 0.0221,0.0441 0.0221,2.48563 0,2.52975 -0.17777,0.35554 -0.66548,0.4877 -0.84325,0.84325 -0.1257,0.2514 0.12571,0.59184 0,0.84325 -0.17777,0.35554 -0.66548,0.4877 -0.84325,0.84325 -0.1257,0.2514 0.12571,0.59184 0,0.84325 -0.17777,0.35554 -0.66548,0.4877 -0.84325,0.84324 -0.1257,0.25141 0.19876,0.6445 0,0.84325 -0.19875,0.19876 -0.64449,-0.19875 -0.84325,0 -0.19875,0.19876 0.19876,0.6445 0,0.84325 -1.12433,1.12434 -0.84325,-1.40541 -0.84325,0.84325"
       inkscape:connector-curvature="0"
       sodipodi:insensitive="true" />
    <rect
       style="fill:#002b11;fill-opacity:1;fill-rule:evenodd;stroke:#000000;stroke-width:1.0053314px;stroke-linecap:butt;stroke-linejoin:miter;stroke-opacity:1;image-rendering:auto"
       id="rect4699"
       width="552.32312"
       height="53.119392"
       x="105.40886"
       y="313.67822" />
    <path
       style="fill:#000000;fill-rule:evenodd;stroke:#000000;stroke-width:1px;stroke-linecap:butt;stroke-linejoin:miter;stroke-opacity:1;fill-opacity:1"
       d="m 169.49317,460.40099 c 11.80549,-2.52975 258.87763,-54.81123 258.87763,-54.81123 l -11.8055,43.00573 230.20714,41.31923 -263.93712,2.52975 6.74599,-45.53548 z"
       id="path4705"
       inkscape:connector-curvature="0" />
    <rect
       style="fill:#000000;fill-opacity:0;stroke:url(#linearGradient5517);stroke-linecap:round"
       id="rect5511"
       width="638.33997"
       height="515.22552"
       x="59.87072"
       y="44.678936" />
    <path
       style="fill:#000000;fill-opacity:1;stroke-linecap:round"
       id="path5587"
       d="m 217.7028,77.892578 c 2.07933,1.415957 4.06302,2.960721 6.0544,4.497453 1.49984,1.343419 2.65101,3.009047 4.01264,4.472131 0.96944,1.364084 2.07357,2.646974 2.81123,4.154474 0.75085,1.17823 1.50167,2.35317 2.22939,3.54357 0.92691,1.27246 1.3849,2.79443 1.98407,4.23305 0.43271,1.519924 0.8011,3.062964 1.14335,4.608514 0.35086,1.7043 0.43033,3.44494 0.48089,5.17907 0.0343,1.69741 0.0269,3.39531 0.0243,5.09297 0.11908,1.74786 -0.14193,3.37451 -0.86034,4.96539 -0.95494,1.55276 -1.93864,3.09181 -2.9673,4.59734 -0.86839,1.64023 -1.90708,3.15228 -3.07874,4.58856 -1.3111,1.35684 -2.31795,2.94902 -3.38606,4.49277 -0.74245,1.08852 -1.65243,2.03675 -2.52246,3.01885 -1.08647,1.09534 -2.07523,2.27747 -3.18992,3.34748 -1.0796,1.15342 -2.25977,2.13421 -3.59252,2.97389 -1.65718,0.99269 -2.98482,2.384 -4.36268,3.71121 -1.30991,1.19199 -2.24392,2.68643 -3.16536,4.17868 -0.7047,1.17004 -1.46307,2.33629 -1.94962,3.61767 -0.50522,1.58815 -1.39354,2.96023 -2.40685,4.26478 -1.18549,1.43202 -2.42306,2.82433 -3.53373,4.31612 -0.91246,1.51533 -1.93131,2.92704 -3.05794,4.28872 -1.13146,1.31545 -1.93988,2.84801 -2.57537,4.45274 -0.52466,1.60371 -1.01549,3.20597 -1.28627,4.87333 -0.13891,1.5087 -0.60742,2.95353 -0.84425,4.44665 -0.2046,1.56055 -0.21784,3.13734 -0.23459,4.70861 -0.0829,1.62978 0.13929,3.25249 0.60024,4.8149 0.84455,1.63069 1.74029,3.23434 2.50485,4.90945 0.65966,1.70691 1.33134,3.41481 2.14538,5.05513 0.94375,1.69285 1.98128,3.32568 3.03652,4.95109 1.20429,1.67685 2.48037,3.30767 3.60787,5.0382 0.99502,1.52294 1.95369,3.06549 3.056,4.51708 1.15172,1.36887 2.60803,2.43694 3.80664,3.76528 1.2833,1.38123 2.47755,2.82088 3.46244,4.43086 1.1008,1.65586 2.21664,3.2966 3.01438,5.12386 0.41759,1.69794 1.56032,2.95254 2.70414,4.2087 1.13417,1.51643 2.42325,2.89776 3.67043,4.32378 1.45409,1.55589 2.90225,3.09716 4.23313,4.75994 1.13641,1.62626 2.48091,3.05392 3.87496,4.46074 1.35972,1.44245 2.51325,3.01401 4.16328,4.14942 1.7207,1.11156 3.17303,2.50441 4.35947,4.16728 1.04059,1.64496 1.3279,3.53596 1.47785,5.43668 0.0628,1.74893 0.15069,3.50803 -0.0457,5.24957 -0.21651,1.79576 -0.91463,3.454 -1.76708,5.02981 -0.99814,1.47534 -1.93646,2.96929 -2.72195,4.56815 -0.70436,1.69117 -1.70977,3.22621 -2.37673,4.93219 -0.60698,1.79873 -1.40818,3.50427 -2.3443,5.15268 -0.90174,1.38462 -2.00947,2.61314 -2.99949,3.9312 -0.84432,1.42683 -2.1319,2.49357 -2.97309,3.91608 -0.64338,1.22271 -1.42957,2.36822 -2.21886,3.5006 0,0 -17.47315,-1.08988 -17.47315,-1.08988 l 0,0 c 0.77806,-1.04871 1.45837,-2.15853 2.18608,-3.24046 0.73448,-1.61583 1.91358,-2.75509 2.98155,-4.13151 0.8702,-1.40155 2.00951,-2.57965 3.01534,-3.87853 1.04731,-1.44696 1.71957,-3.10464 2.33091,-4.77391 0.62097,-1.80285 1.63741,-3.3757 2.38704,-5.12011 0.80258,-1.62105 1.57163,-3.25537 2.705,-4.68384 0.83046,-1.33843 1.5488,-2.74711 1.75364,-4.33064 0.22794,-1.61448 0.0807,-3.26238 0.0435,-4.88727 -0.13706,-1.58545 -0.39005,-3.13901 -1.41337,-4.42282 -1.2651,-1.46475 -2.77663,-2.61933 -4.33389,-3.75916 -1.49442,-1.36053 -2.73504,-2.94084 -4.16579,-4.36456 -1.39982,-1.4538 -2.64445,-3.01742 -3.87196,-4.61747 -1.3535,-1.62754 -2.86248,-3.10986 -4.25816,-4.70064 -1.23873,-1.42509 -2.48447,-2.84271 -3.65983,-4.32103 -1.19608,-1.41741 -2.21408,-2.90354 -2.74503,-4.70519 -0.84986,-1.71287 -1.95258,-3.27493 -2.99758,-4.87215 -1.03177,-1.47079 -2.21313,-2.81576 -3.47084,-4.09819 -1.3273,-1.27517 -2.71809,-2.50929 -3.8059,-4.00309 -1.06024,-1.49649 -2.01176,-3.06251 -3.03126,-4.58604 -1.19326,-1.70178 -2.44294,-3.36391 -3.61402,-5.08078 -1.06927,-1.69402 -2.1629,-3.37434 -3.06264,-5.16784 -0.76512,-1.66719 -1.45206,-3.36684 -2.14628,-5.06444 -0.84344,-1.73908 -1.84949,-3.40617 -2.5286,-5.2161 -0.43311,-1.73285 -0.71474,-3.50186 -0.61555,-5.29392 0.0143,-1.65148 0.0276,-3.30729 0.21732,-4.95001 0.2101,-1.51005 0.67351,-2.95352 0.86836,-4.45924 0.26824,-1.78758 0.76411,-3.50039 1.3014,-5.22255 0.61641,-1.77377 1.4347,-3.51427 2.60469,-4.99265 1.02957,-1.39115 2.2818,-2.59952 3.04533,-4.17965 1.02444,-1.61259 2.34626,-2.98941 3.56358,-4.45271 0.94288,-1.1189 1.79541,-2.25541 2.31594,-3.63649 0.43427,-1.48588 1.23411,-2.76446 2.00624,-4.09428 1.10103,-1.49602 1.86559,-3.24035 3.21575,-4.56051 1.44365,-1.35079 2.75204,-2.83741 4.35868,-4.0072 0.60878,-0.43444 1.24115,-0.74014 1.86676,-1.13012 0.67803,-0.42267 0.47914,-0.44644 1.09343,-1.01554 0.18999,-0.17601 0.40679,-0.32067 0.61019,-0.481 1.06015,-1.12065 2.25907,-2.10841 3.1363,-3.4028 0.98334,-0.75807 1.76235,-1.80282 2.54027,-2.76094 1.27511,-1.41866 2.06114,-3.21832 3.45459,-4.54785 1.17015,-1.35301 2.29281,-2.74832 3.01642,-4.40177 0.96639,-1.475 1.97236,-2.92386 2.95163,-4.39315 0.76868,-1.29166 0.95394,-2.64378 0.84943,-4.14014 0.003,-1.67939 0.0104,-3.35905 -0.0242,-5.03819 -0.0492,-1.62011 -0.12235,-3.2481 -0.48078,-4.83507 -0.34545,-1.44465 -0.65962,-2.90862 -1.15854,-4.306984 -0.57627,-1.35995 -1.03639,-2.76585 -1.97206,-3.93956 -0.78555,-1.19231 -1.4913,-2.43714 -2.2295,-3.65888 -0.81985,-1.32262 -1.75428,-2.57958 -2.74525,-3.778573 -1.20434,-1.476725 -2.45877,-2.933906 -3.95059,-4.130518 -1.95934,-1.512367 -3.87854,-3.109731 -6.08944,-4.251127 0,0 17.42816,-1.83962 17.42816,-1.83962 z"
       inkscape:connector-curvature="0" />
    <path
       style="display:inline;fill:#000000;fill-opacity:1;stroke-linecap:round"
       id="path5587-5"
       d="m 570.13058,74.25874 c 2.07933,1.41595 4.06302,2.96072 6.0544,4.49745 1.49984,1.34342 2.65101,3.00905 4.01264,4.47213 0.96944,1.36408 2.07357,2.64697 2.81123,4.15447 0.75085,1.17823 1.50167,2.35317 2.22939,3.54357 0.92691,1.27246 1.3849,2.79443 1.98407,4.23305 0.43271,1.51992 0.8011,3.06296 1.14335,4.60851 0.35086,1.7043 0.43033,3.44494 0.48089,5.17907 0.0343,1.69741 0.0269,3.39531 0.0243,5.09297 0.11908,1.74786 -0.14193,3.37451 -0.86034,4.96539 -0.95494,1.55276 -1.93864,3.09181 -2.9673,4.59734 -0.86839,1.64023 -1.90708,3.15228 -3.07874,4.58856 -1.3111,1.35684 -2.31795,2.94902 -3.38606,4.49277 -0.74245,1.08852 -1.65243,2.03675 -2.52246,3.01885 -1.08647,1.09534 -2.07523,2.27747 -3.18992,3.34748 -1.0796,1.15342 -2.25977,2.13421 -3.59252,2.97389 -1.65718,0.99269 -2.98482,2.384 -4.36268,3.71121 -1.30991,1.19199 -2.24392,2.68643 -3.16536,4.17868 -0.7047,1.17004 -1.46307,2.33629 -1.94962,3.61767 -0.50522,1.58815 -1.39354,2.96023 -2.40685,4.26478 -1.18549,1.43202 -2.42306,2.82433 -3.53373,4.31612 -0.91246,1.51533 -1.93131,2.92704 -3.05794,4.28872 -1.13146,1.31545 -1.93988,2.84801 -2.57537,4.45274 -0.52466,1.60371 -1.01549,3.20597 -1.28627,4.87333 -0.13891,1.5087 -0.60742,2.95354 -0.84425,4.44666 -0.2046,1.56055 -0.21784,3.13734 -0.23459,4.70861 -0.0829,1.62978 0.13929,3.25249 0.60024,4.8149 0.84455,1.63069 1.74029,3.23434 2.50485,4.90945 0.65966,1.70691 1.33134,3.41481 2.14538,5.05513 0.94375,1.69285 1.98128,3.32568 3.03652,4.95109 1.20429,1.67685 2.48037,3.30767 3.60787,5.0382 0.99502,1.52294 1.95369,3.06549 3.056,4.51708 1.15172,1.36887 2.60803,2.43694 3.80664,3.76528 1.2833,1.38123 2.47755,2.82088 3.46244,4.43086 1.1008,1.65586 2.21664,3.2966 3.01438,5.12386 0.41759,1.69794 1.56032,2.95254 2.70414,4.2087 1.13417,1.51643 2.42325,2.89776 3.67043,4.32378 1.45409,1.55589 2.90225,3.09716 4.23313,4.75994 1.13641,1.62626 2.48091,3.05392 3.87496,4.46074 1.35972,1.44245 2.51325,3.01401 4.16328,4.14942 1.7207,1.11156 3.17303,2.50441 4.35947,4.16728 1.04059,1.64496 1.3279,3.53596 1.47785,5.43668 0.0628,1.74893 0.15069,3.50803 -0.0457,5.24957 -0.21651,1.79576 -0.91463,3.454 -1.76708,5.02981 -0.99814,1.47534 -1.93646,2.96929 -2.72195,4.56815 -0.70436,1.69117 -1.70977,3.22621 -2.37673,4.93219 -0.60698,1.79873 -1.40818,3.50427 -2.3443,5.15268 -0.90174,1.38462 -2.00947,2.61314 -2.99949,3.9312 -0.84432,1.42683 -2.1319,2.49357 -2.97309,3.91608 -0.64338,1.22271 -1.42957,2.36822 -2.21886,3.5006 0,0 -17.47315,-1.08988 -17.47315,-1.08988 l 0,0 c 0.77806,-1.04871 1.45837,-2.15853 2.18608,-3.24046 0.73448,-1.61583 1.91358,-2.75509 2.98155,-4.13151 0.8702,-1.40155 2.00951,-2.57965 3.01534,-3.87853 1.04731,-1.44696 1.71957,-3.10464 2.33091,-4.77391 0.62097,-1.80285 1.63741,-3.3757 2.38704,-5.12011 0.80258,-1.62105 1.57163,-3.25537 2.705,-4.68384 0.83046,-1.33843 1.5488,-2.74711 1.75364,-4.33064 0.22794,-1.61448 0.0807,-3.26238 0.0435,-4.88727 -0.13706,-1.58545 -0.39005,-3.13901 -1.41337,-4.42282 -1.2651,-1.46475 -2.77663,-2.61933 -4.33389,-3.75916 -1.49442,-1.36053 -2.73504,-2.94084 -4.16579,-4.36456 -1.39982,-1.4538 -2.64445,-3.01742 -3.87196,-4.61747 -1.3535,-1.62754 -2.86248,-3.10986 -4.25816,-4.70064 -1.23873,-1.42509 -2.48447,-2.84271 -3.65983,-4.32103 -1.19608,-1.41741 -2.21408,-2.90354 -2.74503,-4.70519 -0.84986,-1.71287 -1.95258,-3.27493 -2.99758,-4.87215 -1.03177,-1.47079 -2.21313,-2.81576 -3.47084,-4.09819 -1.3273,-1.27517 -2.71809,-2.50929 -3.8059,-4.00309 -1.06024,-1.49649 -2.01176,-3.06251 -3.03126,-4.58604 -1.19326,-1.70178 -2.44294,-3.36391 -3.61402,-5.08078 -1.06927,-1.69402 -2.1629,-3.37434 -3.06264,-5.16784 -0.76512,-1.66719 -1.45206,-3.36684 -2.14628,-5.06444 -0.84344,-1.73908 -1.84949,-3.40617 -2.5286,-5.2161 -0.43311,-1.73285 -0.71474,-3.50186 -0.61555,-5.29392 0.0143,-1.65148 0.0276,-3.30729 0.21732,-4.95001 0.2101,-1.51005 0.67351,-2.95353 0.86836,-4.45925 0.26824,-1.78758 0.76411,-3.50039 1.3014,-5.22255 0.61641,-1.77377 1.4347,-3.51427 2.60469,-4.99265 1.02957,-1.39115 2.2818,-2.59952 3.04533,-4.17965 1.02444,-1.61259 2.34626,-2.98941 3.56358,-4.45271 0.94288,-1.1189 1.79541,-2.25541 2.31594,-3.63649 0.43427,-1.48588 1.23411,-2.76446 2.00624,-4.09428 1.10103,-1.49602 1.86559,-3.24035 3.21575,-4.56051 1.44365,-1.35079 2.75204,-2.83741 4.35868,-4.0072 0.60878,-0.43444 1.24115,-0.74014 1.86676,-1.13012 0.67803,-0.42267 0.47914,-0.44644 1.09343,-1.01554 0.18999,-0.17601 0.40679,-0.32067 0.61019,-0.481 1.06015,-1.12065 2.25907,-2.10841 3.1363,-3.4028 0.98334,-0.75807 1.76235,-1.80282 2.54027,-2.76094 1.27511,-1.41866 2.06114,-3.21832 3.45459,-4.54785 1.17015,-1.35301 2.29281,-2.74832 3.01642,-4.40177 0.96639,-1.475 1.97236,-2.92386 2.95163,-4.39315 0.76868,-1.29166 0.95394,-2.64378 0.84943,-4.14014 0.003,-1.67939 0.0104,-3.35905 -0.0242,-5.03819 -0.0492,-1.62011 -0.12235,-3.2481 -0.48078,-4.83507 -0.34545,-1.44465 -0.65962,-2.90862 -1.15854,-4.30698 -0.57627,-1.35995 -1.03639,-2.76585 -1.97206,-3.93956 -0.78555,-1.19231 -1.4913,-2.43714 -2.2295,-3.65888 -0.81985,-1.32262 -1.75428,-2.57958 -2.74525,-3.77857 -1.20434,-1.47672 -2.45877,-2.93391 -3.95059,-4.13052 -1.95934,-1.51236 -3.87854,-3.10973 -6.08944,-4.25112 0,0 17.42816,-1.83962 17.42816,-1.83962 z"
       inkscape:connector-curvature="0" />
    <path
       style="display:inline;fill:#000000;fill-opacity:1;stroke-linecap:round"
       id="path5587-6"
       d="m 398.57218,73.187778 c 2.07933,1.415957 4.06302,2.960721 6.0544,4.497453 1.49984,1.343419 2.65101,3.009047 4.01264,4.472131 0.96944,1.364084 2.07357,2.646974 2.81123,4.154474 0.75085,1.17823 1.50167,2.35317 2.22939,3.54357 0.92691,1.27246 1.3849,2.79443 1.98407,4.23305 0.43271,1.51992 0.8011,3.06296 1.14335,4.60851 0.35086,1.704304 0.43033,3.444944 0.48089,5.179074 0.0343,1.69741 0.0269,3.39531 0.0243,5.09297 0.11908,1.74786 -0.14193,3.37451 -0.86034,4.96539 -0.95494,1.55276 -1.93864,3.09181 -2.9673,4.59734 -0.86839,1.64023 -1.90708,3.15228 -3.07874,4.58856 -1.3111,1.35684 -2.31795,2.94902 -3.38606,4.49277 -0.74245,1.08852 -1.65243,2.03675 -2.52246,3.01885 -1.08647,1.09534 -2.07523,2.27747 -3.18992,3.34748 -1.0796,1.15342 -2.25977,2.13421 -3.59252,2.97389 -1.65718,0.99269 -2.98482,2.384 -4.36268,3.71121 -1.30991,1.19199 -2.24392,2.68643 -3.16536,4.17868 -0.7047,1.17004 -1.46307,2.33629 -1.94962,3.61767 -0.50522,1.58815 -1.39354,2.96023 -2.40685,4.26478 -1.18549,1.43202 -2.42306,2.82433 -3.53373,4.31612 -0.91246,1.51533 -1.93131,2.92704 -3.05794,4.28872 -1.13146,1.31545 -1.93988,2.84801 -2.57537,4.45274 -0.52466,1.60371 -1.01549,3.20597 -1.28627,4.87333 -0.13891,1.5087 -0.60742,2.95353 -0.84425,4.44665 -0.2046,1.56055 -0.21784,3.13734 -0.23459,4.70861 -0.0829,1.62978 0.13929,3.25249 0.60024,4.8149 0.84455,1.63069 1.74029,3.23434 2.50485,4.90945 0.65966,1.70691 1.33134,3.41481 2.14538,5.05513 0.94375,1.69285 1.98128,3.32568 3.03652,4.95109 1.20429,1.67685 2.48037,3.30767 3.60787,5.0382 0.99502,1.52294 1.95369,3.06549 3.056,4.51708 1.15172,1.36887 2.60803,2.43694 3.80664,3.76528 1.2833,1.38123 2.47755,2.82088 3.46244,4.43086 1.1008,1.65586 2.21664,3.2966 3.01438,5.12386 0.41759,1.69794 1.56032,2.95254 2.70414,4.2087 1.13417,1.51643 2.42325,2.89776 3.67043,4.32378 1.45409,1.55589 2.90225,3.09716 4.23313,4.75994 1.13641,1.62626 2.48091,3.05392 3.87496,4.46074 1.35972,1.44245 2.51325,3.01401 4.16328,4.14942 1.7207,1.11156 3.17303,2.50441 4.35947,4.16728 1.04059,1.64496 1.3279,3.53596 1.47785,5.43668 0.0628,1.74893 0.15069,3.50803 -0.0457,5.24957 -0.21651,1.79576 -0.91463,3.454 -1.76708,5.02981 -0.99814,1.47534 -1.93646,2.96929 -2.72195,4.56815 -0.70436,1.69117 -1.70977,3.22621 -2.37673,4.93219 -0.60698,1.79873 -1.40818,3.50427 -2.3443,5.15268 -0.90174,1.38462 -2.00947,2.61314 -2.99949,3.9312 -0.84432,1.42683 -2.1319,2.49357 -2.97309,3.91608 -0.64338,1.22271 -1.42957,2.36822 -2.21886,3.5006 0,0 -17.47315,-1.08988 -17.47315,-1.08988 l 0,0 c 0.77806,-1.04871 1.45837,-2.15853 2.18608,-3.24046 0.73448,-1.61583 1.91358,-2.75509 2.98155,-4.13151 0.8702,-1.40155 2.00951,-2.57965 3.01534,-3.87853 1.04731,-1.44696 1.71957,-3.10464 2.33091,-4.77391 0.62097,-1.80285 1.63741,-3.3757 2.38704,-5.12011 0.80258,-1.62105 1.57163,-3.25537 2.705,-4.68384 0.83046,-1.33843 1.5488,-2.74711 1.75364,-4.33064 0.22794,-1.61448 0.0807,-3.26238 0.0435,-4.88727 -0.13706,-1.58545 -0.39005,-3.13901 -1.41337,-4.42282 -1.2651,-1.46475 -2.77663,-2.61933 -4.33389,-3.75916 -1.49442,-1.36053 -2.73504,-2.94084 -4.16579,-4.36456 -1.39982,-1.4538 -2.64445,-3.01742 -3.87196,-4.61747 -1.3535,-1.62754 -2.86248,-3.10986 -4.25816,-4.70064 -1.23873,-1.42509 -2.48447,-2.84271 -3.65983,-4.32103 -1.19608,-1.41741 -2.21408,-2.90354 -2.74503,-4.70519 -0.84986,-1.71287 -1.95258,-3.27493 -2.99758,-4.87215 -1.03177,-1.47079 -2.21313,-2.81576 -3.47084,-4.09819 -1.3273,-1.27517 -2.71809,-2.50929 -3.8059,-4.00309 -1.06024,-1.49649 -2.01176,-3.06251 -3.03126,-4.58604 -1.19326,-1.70178 -2.44294,-3.36391 -3.61402,-5.08078 -1.06927,-1.69402 -2.1629,-3.37434 -3.06264,-5.16784 -0.76512,-1.66719 -1.45206,-3.36684 -2.14628,-5.06444 -0.84344,-1.73908 -1.84949,-3.40617 -2.5286,-5.2161 -0.43311,-1.73285 -0.71474,-3.50186 -0.61555,-5.29392 0.0143,-1.65148 0.0276,-3.30729 0.21732,-4.95001 0.2101,-1.51005 0.67351,-2.95352 0.86836,-4.45924 0.26824,-1.78758 0.76411,-3.50039 1.3014,-5.22255 0.61641,-1.77377 1.4347,-3.51427 2.60469,-4.99265 1.02957,-1.39115 2.2818,-2.59952 3.04533,-4.17965 1.02444,-1.61259 2.34626,-2.98941 3.56358,-4.45271 0.94288,-1.1189 1.79541,-2.25541 2.31594,-3.63649 0.43427,-1.48588 1.23411,-2.76446 2.00624,-4.09428 1.10103,-1.49602 1.86559,-3.24035 3.21575,-4.56051 1.44365,-1.35079 2.75204,-2.83741 4.35868,-4.0072 0.60878,-0.43444 1.24115,-0.74014 1.86676,-1.13012 0.67803,-0.42267 0.47914,-0.44644 1.09343,-1.01554 0.18999,-0.17601 0.40679,-0.32067 0.61019,-0.481 1.06015,-1.12065 2.25907,-2.10841 3.1363,-3.4028 0.98334,-0.75807 1.76235,-1.80282 2.54027,-2.76094 1.27511,-1.41866 2.06114,-3.21832 3.45459,-4.54785 1.17015,-1.35301 2.29281,-2.74832 3.01642,-4.40177 0.96639,-1.475 1.97236,-2.92386 2.95163,-4.39315 0.76868,-1.29166 0.95394,-2.64378 0.84943,-4.14014 0.003,-1.67939 0.0104,-3.35905 -0.0242,-5.03819 -0.0492,-1.62011 -0.12235,-3.2481 -0.48078,-4.835074 -0.34545,-1.44465 -0.65962,-2.90862 -1.15854,-4.30698 -0.57627,-1.35995 -1.03639,-2.76585 -1.97206,-3.93956 -0.78555,-1.19231 -1.4913,-2.43714 -2.2295,-3.65888 -0.81985,-1.32262 -1.75428,-2.57958 -2.74525,-3.778573 -1.20434,-1.476725 -2.45877,-2.933906 -3.95059,-4.130518 -1.95934,-1.512367 -3.87854,-3.109731 -6.08944,-4.251127 0,0 17.42816,-1.83962 17.42816,-1.83962 z"
       inkscape:connector-curvature="0" />
  </g>
</svg>
